<?xml version="1.0" encoding="UTF-8" standalone="no"?>
<!-- Created with Inkscape (http://www.inkscape.org/) -->

<svg
   width="256"
   height="256"
   viewBox="0 0 67.73333 67.733334"
   version="1.1"
   id="svg5"
   xml:space="preserve"
   inkscape:version="1.2.1 (9c6d41e410, 2022-07-14)"
   sodipodi:docname="addfiles.svg"
   xmlns:inkscape="http://www.inkscape.org/namespaces/inkscape"
   xmlns:sodipodi="http://sodipodi.sourceforge.net/DTD/sodipodi-0.dtd"
   xmlns="http://www.w3.org/2000/svg"
   xmlns:svg="http://www.w3.org/2000/svg"><sodipodi:namedview
     id="namedview7"
     pagecolor="#ffffff"
     bordercolor="#000000"
     borderopacity="0.25"
     inkscape:showpageshadow="2"
     inkscape:pageopacity="0.0"
     inkscape:pagecheckerboard="true"
     inkscape:deskcolor="#d1d1d1"
     inkscape:document-units="mm"
     showgrid="false"
     showborder="true"
     inkscape:zoom="2.0888418"
     inkscape:cx="-9.8140508"
     inkscape:cy="101.01291"
     inkscape:window-width="1920"
     inkscape:window-height="1009"
     inkscape:window-x="-8"
     inkscape:window-y="-8"
     inkscape:window-maximized="1"
     inkscape:current-layer="layer1" /><defs
     id="defs2" /><g
     inkscape:label="图层 1"
     inkscape:groupmode="layer"
     id="layer1"><path
       d="m 60.96,57.573335 v -40.64 H 6.773336 v 40.64 H 60.96 m 0,-54.1866683 A 6.7733333,6.7733333 0 0 1 67.733333,10.16 V 57.573335 A 6.7733333,6.7733333 0 0 1 60.96,64.346667 H 6.773336 A 6.7733333,6.7733333 0 0 1 4.9999998e-7,57.573335 V 10.16 A 6.7733333,6.7733333 0 0 1 6.773336,3.3866667 H 60.96 M 37.253333,50.800002 v -6.773333 h 16.933335 v 6.773333 H 37.253333 M 25.670933,37.253334 12.090401,23.706668 h 9.584266 l 11.176,11.176001 c 1.3208,1.320799 1.3208,3.488265 0,4.809065 L 21.742402,50.800002 h -9.584268 z"
       fill=""
       p-id="5458"
       id="path132"
       style="stroke-width:0.079375" /><g
       id="g328"
       transform="matrix(0.03307292,0,0,0.03307292,38.099997,-4.2333338)"><path
         d="m 512,512 m -384,0 a 384,384 0 1 0 768,0 384,384 0 1 0 -768,0 z"
         fill="#4caf50"
         p-id="20325"
         id="path313" /><path
         d="m 469.33333,298.66667 h 85.33334 v 426.66666 h -85.33334 z"
         fill="#fdfdfd"
         p-id="20326"
         id="path315" /><path
         d="m 725.33333,469.33333 v 85.33334 H 298.66667 v -85.33334 z"
         fill="#fdfdfd"
         p-id="20327"
         id="path317" /></g></g></svg>
