<?xml version="1.0" encoding="UTF-8" standalone="no"?>
<!-- Created with Inkscape (http://www.inkscape.org/) -->

<svg
   width="256"
   height="256"
   viewBox="0 0 67.73333 67.733334"
   version="1.1"
   id="svg5"
   xml:space="preserve"
   inkscape:version="1.2.1 (9c6d41e410, 2022-07-14)"
   sodipodi:docname="addfiles-CMD.svg"
   xmlns:inkscape="http://www.inkscape.org/namespaces/inkscape"
   xmlns:sodipodi="http://sodipodi.sourceforge.net/DTD/sodipodi-0.dtd"
   xmlns="http://www.w3.org/2000/svg"
   xmlns:svg="http://www.w3.org/2000/svg"><sodipodi:namedview
     id="namedview7"
     pagecolor="#ffffff"
     bordercolor="#000000"
     borderopacity="0.25"
     inkscape:showpageshadow="2"
     inkscape:pageopacity="0.0"
     inkscape:pagecheckerboard="true"
     inkscape:deskcolor="#d1d1d1"
     inkscape:document-units="mm"
     showgrid="false"
     showborder="true"
     inkscape:zoom="2.2262815"
     inkscape:cx="132.28336"
     inkscape:cy="125.32108"
     inkscape:window-width="1920"
     inkscape:window-height="1009"
     inkscape:window-x="-8"
     inkscape:window-y="-8"
     inkscape:window-maximized="1"
     inkscape:current-layer="layer1" /><defs
     id="defs2" /><g
     inkscape:label="图层 1"
     inkscape:groupmode="layer"
     id="layer1"><g
       id="g313"
       transform="matrix(0.0881765,0,0,0.0881765,-11.279701,-11.279701)"><path
         d="m 127.92187,233.34283 h 724.19614 c 24.16765,0 43.96012,19.79247 43.96012,43.96012 v 522.10458 c 0,24.16765 -19.79247,43.96012 -43.96012,43.96012 H 172.09034 c -24.16765,0 -43.96013,-19.79247 -43.96013,-43.96012 z"
         fill="#ffb300"
         p-id="15624"
         id="path292" /><path
         d="m 156.4647,180.63235 h 312.72106 c 15.62563,0 28.33448,13.12553 28.33448,29.37619 v 23.33429 H 127.92187 v -23.33429 c 0,-16.25066 12.91719,-29.37619 28.54283,-29.37619 z"
         fill="#ffa000"
         p-id="15625"
         id="path294" /><path
         d="M 361.88972,258.34384 H 710.23723 V 794.19898 H 312.51272 V 303.13733 Z"
         fill="#ffffff"
         p-id="15626"
         id="path296" /><path
         d="m 170.63194,372.7235 h 282.71984 l 59.7941,-47.91862 h 338.97213 c 23.54262,0 42.71007,19.79247 42.71007,43.96013 v 430.64252 c 0,24.16765 -19.16745,43.96012 -42.71007,43.96012 H 170.63194 c -23.54262,0 -42.71007,-19.79247 -42.71007,-43.96012 V 416.68362 c 0,-24.16765 19.37579,-43.96012 42.71007,-43.96012 z"
         fill="#ffd54f"
         p-id="15627"
         id="path298" /><path
         d="m 361.47304,303.76236 -48.96032,-0.62503 48.96032,-44.79349 z"
         fill="#bdbdbd"
         p-id="15628"
         id="path300" /></g><g
       id="g328"
       transform="matrix(0.03307292,0,0,0.03307292,38.099997,-4.2333338)"><path
         d="m 512,512 m -384,0 a 384,384 0 1 0 768,0 384,384 0 1 0 -768,0 z"
         fill="#4caf50"
         p-id="20325"
         id="path313" /><path
         d="m 469.33333,298.66667 h 85.33334 v 426.66666 h -85.33334 z"
         fill="#fdfdfd"
         p-id="20326"
         id="path315" /><path
         d="m 725.33333,469.33333 v 85.33334 H 298.66667 v -85.33334 z"
         fill="#fdfdfd"
         p-id="20327"
         id="path317" /></g></g></svg>
